<?xml version="1.0" encoding="utf-8"?>
<!-- Generator: Adobe Illustrator 24.0.2, SVG Export Plug-In . SVG Version: 6.00 Build 0)  -->
<svg version="1.1" id="Capa_1" xmlns="http://www.w3.org/2000/svg" xmlns:xlink="http://www.w3.org/1999/xlink" x="0px" y="0px"
	 viewBox="0 0 300 300" style="enable-background:new 0 0 300 300;" xml:space="preserve">
<style type="text/css">
	.st0{fill-rule:evenodd;clip-rule:evenodd;fill:#FFFFFF;}
</style>
<g>
	<g>
		<path class="st0" d="M2.08,110.59h33.25c0,0,32.63,32.02,46.9,45.98c0-15.34,0-30.63,0-45.98c7.75,0,15.5,0,23.25,0
			c0,33.89,0,67.45,0,101.34L2.08,110.59z"/>
		<path class="st0" d="M297.27,189.19h-33.25c0,0-32.63-32.02-46.9-45.98c0,15.34,0,30.63,0,45.98c-7.75,0-15.5,0-23.25,0
			c0-33.89,0-67.45,0-101.34L297.27,189.19z"/>
		<rect x="110.21" y="110.59" class="st0" width="23.15" height="78.6"/>
		<rect x="138.09" y="110.59" class="st0" width="23.15" height="78.6"/>
		<rect x="165.94" y="110.59" class="st0" width="23.15" height="78.6"/>
		<path class="st0" d="M165.91,193.87l23.2,22.74c0-7.59,0-15.17,0-22.74H165.91z"/>
		<path class="st0" d="M217.07,193.87l-23.2,22.74c0-7.59,0-15.17,0-22.74H217.07z"/>
		<path class="st0" d="M82.23,105.92l23.2-22.74c0,7.59,0,15.17,0,22.74H82.23z"/>
		<path class="st0" d="M133.39,105.92l-23.2-22.74c0,7.59,0,15.17,0,22.74H133.39z"/>
	</g>
	<g>
		<polygon class="st0" points="191.52,27.99 185.34,36.5 190.25,38.16 193.88,28.78 		"/>
		<path class="st0" d="M50.92,85.69l-5.79-5.09c-0.41-0.34-0.8-0.62-1.16-0.84c-1.83-1.11-3.3-0.74-4.42,1.11
			c-1.36,2.35-0.89,4.54,1.43,6.56l5.79,5.09c0.51,0.43,1.07,0.83,1.67,1.2c1.58,0.96,2.94,0.49,4.09-1.4
			c0.68-1.13,0.94-2.21,0.76-3.24C53.13,88.05,52.34,86.92,50.92,85.69z"/>
		<path class="st0" d="M149.67,9.05c-61.54,0-113.87,39.47-133.04,94.49h21.58l2.06,2.02c0.13,0.12,4.97,4.87,11.69,11.46
			c13.72-40.8,52.28-70.19,97.71-70.19c51.71,0,94.52,38.08,101.93,87.72l37.32,36.58c1.05-6.93,1.59-14.02,1.59-21.24
			C290.52,72.11,227.46,9.05,149.67,9.05z M57.23,96.41c-1.98,3.27-4.12,5.09-6.41,5.46c-1.57,0.25-3.27-0.18-5.09-1.29
			c-0.81-0.49-1.65-1.12-2.51-1.89l-6.04-5.29c-5.4-4.72-6.18-10.25-2.33-16.59c3.3-5.43,7.17-6.8,11.61-4.11
			c0.75,0.45,1.5,1.02,2.26,1.69l6.04,5.29c2.8,2.44,4.42,5.02,4.83,7.74C60,90.15,59.22,93.14,57.23,96.41z M77.55,70.4l-9.75-5.4
			l-1.77,1.69l6.18,8.81l-5.49,5.24L50.68,56.68l8.29-7.92c2.18-2.08,4.18-3.07,6-3c1.38,0.07,2.6,0.66,3.65,1.76
			c0.37,0.38,0.71,0.82,1.03,1.31l1.73,2.61c0.96,1.46,1.51,2.84,1.68,4.14c0.17,1.3,0.06,2.44-0.32,3.42l10.58,5.87L77.55,70.4z
			 M88.11,61.82L77.28,35.01l6.04-3.77l10.87,26.79L88.11,61.82z M110.57,50.51c-3.51,1.3-6.23,1.39-8.18,0.25
			c-1.34-0.8-2.37-2.19-3.1-4.16c-0.34-0.91-0.61-1.95-0.82-3.11l-1.45-7.9c-1.29-7.06,1.53-11.87,8.48-14.45
			c2.86-1.06,5.27-1.26,7.21-0.59c1.94,0.67,3.3,2.07,4.09,4.2c0.32,0.87,0.53,1.79,0.62,2.76c0.1,0.98,0.11,1.73,0.06,2.26
			l-0.12,0.8l-6.57,2.43c0.31-1.13,0.25-2.27-0.18-3.43c-0.83-2.23-2.16-2.99-4.02-2.31c-2.5,0.93-3.46,2.93-2.88,6l1.38,7.59
			c0.12,0.71,0.31,1.39,0.54,2.03c0.63,1.71,1.96,2.18,3.97,1.44c2.02-0.75,2.93-2.24,2.75-4.48l-3.04,1.13l-0.79-4.39l9.83-3.65
			l0.59,3.41l0.21,1.14C120.26,43.64,117.39,47.98,110.57,50.51z M134.98,43.57l-7.08,1.07l0.69-28.91l7.04-1.07L134.98,43.57z
			 M157.95,42.87l-4.23-15.8l-3.43,15.44l-7.15-0.34l6.38-28.2l7.35,0.35l4.2,14.77l3.27-14.41l7.11,0.34l-6.34,28.21L157.95,42.87z
			 M186.15,48.93l2.21-5.81l-6.26-2.11l-3.83,5.26l-7.16-2.42l18.75-23.72l12.36,4.18l-8.97,27.03L186.15,48.93z M209.15,53.21
			l9.21,5.86l-4.24,4.61L198.89,54l19.52-21.33l6.01,3.82L209.15,53.21z M239.03,80.17l-3.22-7.25l-7.8-1.46l5.9-5.3l-1.02-7.87
			l6.86,3.97l7.16-3.4l-1.66,7.76l5.45,5.76l-7.89,0.82L239.03,80.17z M251.49,102.44l0.38-7.92l-6.31-4.8l7.65-2.09l2.62-7.49
			l4.35,6.63l7.93,0.17l-4.96,6.19l2.29,7.59L258,97.92L251.49,102.44z M271.96,125.86l-0.44,7.92l-6.02-5.17l-7.67,2.03l3.05-7.32
			l-4.3-6.67l7.91,0.64l5.01-6.15l1.83,7.72l7.4,2.87L271.96,125.86z"/>
		<path class="st0" d="M61.43,54.94l-2.14,2.05l4.01,5.69l2-1.91c1.01-0.97,1.5-1.9,1.48-2.81c-0.03-0.91-0.42-1.76-1.18-2.56
			C64.11,53.86,62.73,53.71,61.43,54.94z"/>
	</g>
	<g>
		<path class="st0" d="M186.26,260.12c-0.01-0.24-0.07-0.55-0.18-0.92c-0.1-0.37-0.41-0.73-0.91-1.08c-0.5-0.34-1.25-0.38-2.25-0.09
			l-3.37,0.95l0.75,7.42l3.33-0.94c2.05-0.58,2.98-1.82,2.79-3.73L186.26,260.12z"/>
		<polygon class="st0" points="206.07,248.81 208.24,258.92 212.68,256.42 208.21,247.6 		"/>
		<path class="st0" d="M119.54,258.63c-2.58-0.71-4.54,0.29-5.88,3.01l-3.39,6.79c-0.28,0.59-0.53,1.22-0.72,1.89
			c-0.52,1.74,0.27,2.92,2.36,3.54c1.24,0.37,2.33,0.34,3.27-0.09c0.94-0.43,1.81-1.46,2.63-3.12l3.39-6.79
			c0.23-0.47,0.39-0.91,0.51-1.31C122.3,260.54,121.58,259.23,119.54,258.63z"/>
		<path class="st0" d="M261.13,196.26l-2.06-2.02c-0.13-0.12-4.97-4.87-11.69-11.46c-13.72,40.8-52.28,70.19-97.71,70.19
			c-51.71,0-94.52-38.08-101.93-87.72l-37.32-36.58c-1.05,6.93-1.59,14.02-1.59,21.24c0,77.79,63.06,140.85,140.85,140.85
			c61.54,0,113.87-39.47,133.04-94.48H261.13z M27.03,183.35l-7.4-2.87l6.77-4.13l0.44-7.92l6.02,5.17l7.67-2.03l-3.05,7.32
			l4.3,6.67l-7.91-0.64l-5.01,6.15L27.03,183.35z M42.55,222.09l-4.35-6.63l-7.93-0.17l4.96-6.19l-2.29-7.59l7.42,2.81l6.52-4.52
			l-0.38,7.92l6.31,4.8l-7.65,2.09L42.55,222.09z M65.48,243.93l-6.86-3.97l-7.16,3.4l1.66-7.76l-5.45-5.76l7.89-0.82l3.8-6.96
			l3.22,7.25l7.8,1.46l-5.9,5.3L65.48,243.93z M98.31,258.18l-0.77,0.45l-5.92-3.52c1.24-0.41,2.32-1.39,3.25-2.95
			c0.49-0.82,0.67-1.6,0.53-2.33c-0.14-0.73-0.62-1.34-1.44-1.83c-2.25-1.34-4.33-0.89-6.24,1.35l-5.19,6.06
			c-0.46,0.51-0.85,1.05-1.18,1.6c-0.88,1.47-0.43,2.73,1.33,3.78c2.12,1.26,4.1,0.82,5.94-1.31l6.01,3.58l-0.75,0.87
			c-3.98,4.66-9.06,5.15-15.23,1.48c-3.19-1.9-4.98-3.9-5.38-6.01c-0.26-1.48,0.13-3.11,1.18-4.87c0.45-0.76,1.01-1.52,1.68-2.3
			l5.95-6.87c4.36-5.04,9.66-5.7,15.9-1.99c2.58,1.54,4.22,3.26,4.9,5.16c0.68,1.9,0.45,3.81-0.69,5.72
			c-0.53,0.89-1.19,1.7-1.97,2.43C99.45,257.4,98.81,257.9,98.31,258.18z M129.04,263.15c-0.24,0.82-0.59,1.68-1.05,2.57l-3.51,7.07
			c-1.62,3.28-3.67,5.46-6.16,6.53c-2.48,1.08-5.53,1.08-9.13,0.01c-3.61-1.07-5.87-2.64-6.79-4.73c-0.63-1.43-0.65-3.15-0.05-5.17
			c0.26-0.89,0.66-1.85,1.17-2.86l3.52-7.07c3.14-6.32,8.21-8.44,15.19-6.37C128.22,254.91,130.49,258.25,129.04,263.15z
			 M160.96,284.98l-7.04-0.02l2.85-15.78l-6.02,9.39l-5.1-0.02l-2.61-9.42l-2.85,15.78l-7-0.02l5.04-27.99l7.31,0.03l4.12,13.43
			l8.99-13.39l7.35,0.02L160.96,284.98z M191.5,267.39c-1.45,1.85-3.48,3.14-6.1,3.88l-4.46,1.25l0.84,8.61l-6.74,1.9l-2.83-28.3
			l11.42-3.21c2.82-0.79,5.01-0.71,6.58,0.25c1.15,0.75,1.95,1.9,2.39,3.45c0.15,0.52,0.25,1.09,0.31,1.69l0.44,4.44
			C193.56,263.53,192.94,265.54,191.5,267.39z M217.86,266.5l-2.79-5.44l-5.66,3.19l1.33,6.26l-6.47,3.64l-5.03-29.31l11.19-6.3
			l13.87,24.33L217.86,266.5z M244.68,245.91l-14.17-7.62l8.74,12.86l-5.07,4.89l-15.9-23.58l5.21-5.03l13.41,6.95l-8.12-12.05
			l5.04-4.86l15.93,23.55L244.68,245.91z M253.67,218l-17.78-3.98l3.89-6.33l9.98,2.57l0.47-0.76l-4.95-10.75l3.66-5.97l8.41,19.23
			l8.19,7.26l-3.69,6L253.67,218z"/>
	</g>
</g>
</svg>
